<svg height="512pt" viewBox="0 -56 512 512" width="512pt" xmlns="http://www.w3.org/2000/svg"><path d="m512 119.320312v109.238282c0 65.792968-53.519531 119.320312-119.308594 119.320312h-262.132812l-97.707032 49.339844c-3.453124 2.101562-7.332031 3.171875-11.242187 3.171875-3.410156 0-6.820313-.8125-9.96875-2.449219-7.179687-3.730468-11.640625-11.070312-11.640625-19.160156v-259.460938c0-65.789062 53.519531-119.320312 119.308594-119.320312h273.382812c65.789063 0 119.308594 53.53125 119.308594 119.320312zm0 0" fill="#52adff"/><path d="m512 119.320312v109.238282c0 65.792968-53.519531 119.320312-119.308594 119.320312h-136.691406v-347.878906h136.691406c65.789063 0 119.308594 53.53125 119.308594 119.320312zm0 0" fill="#1d78db"/><path d="m413.929688 84.808594c0 8.292968-6.71875 15-15 15h-285.859376c-8.28125 0-15-6.707032-15-15 0-8.277344 6.71875-15 15-15h285.859376c8.28125 0 15 6.722656 15 15zm0 0" fill="#fff"/><path d="m351.460938 144.800781c0 8.277344-6.722657 15-15 15h-223.390626c-8.28125 0-15-6.722656-15-15 0-8.289062 6.71875-15 15-15h223.390626c8.277343 0 15 6.710938 15 15zm0 0" fill="#fff"/><path d="m413.929688 205.328125c0 8.292969-6.71875 15-15 15h-285.859376c-8.28125 0-15-6.707031-15-15 0-8.277344 6.71875-15 15-15h285.859376c8.28125 0 15 6.722656 15 15zm0 0" fill="#fff"/><g fill="#f7ecd9"><path d="m398.929688 279.972656h-91.695313c-8.285156 0-15-6.714844-15-15s6.714844-15 15-15h91.695313c8.28125 0 15 6.714844 15 15s-6.71875 15-15 15zm0 0"/><path d="m336.460938 159.800781h-80.460938v-30h80.460938c8.277343 0 15 6.710938 15 15 0 8.277344-6.722657 15-15 15zm0 0"/><path d="m413.929688 205.328125c0 8.292969-6.71875 15-15 15h-142.929688v-30h142.929688c8.28125 0 15 6.722656 15 15zm0 0"/><path d="m398.929688 99.808594h-142.929688v-30h142.929688c8.28125 0 15 6.722656 15 15 0 8.292968-6.71875 15-15 15zm0 0"/></g></svg>