<?xml version="1.0" encoding="utf-8"?>
<!-- Svg Vector Icons : http://www.onlinewebfonts.com/icon -->
<!DOCTYPE svg PUBLIC "-//W3C//DTD SVG 1.1//EN" "http://www.w3.org/Graphics/SVG/1.1/DTD/svg11.dtd">
<svg version="1.1" xmlns="http://www.w3.org/2000/svg" xmlns:xlink="http://www.w3.org/1999/xlink" x="0px" y="0px" viewBox="0 0 1000 1000" enable-background="new 0 0 1000 1000" xml:space="preserve">
<metadata> Svg Vector Icons : http://www.onlinewebfonts.com/icon </metadata>
<g><g transform="translate(0.000000,512.000000) scale(0.100000,-0.100000)"><path d="M279,4997c-78.6-34.5-159.1-132.2-172.5-208.9c-5.7-34.5-7.7-916.1-5.7-1962.5c5.7-1885.9,5.7-1901.2,46-1953c21.1-28.8,63.2-70.9,92-92c51.7-40.2,63.3-40.2,2004.7-40.2s1953,0,2004.7,40.2c28.8,21.1,70.9,63.2,92,92c40.2,51.7,40.2,63.3,40.2,2004.7s0,1953-40.2,2004.7c-21.1,28.7-63.2,70.9-92,92c-51.7,40.2-67.1,40.2-1981.7,44.1C691,5021.9,325,5018,279,4997z M3776.7,2877.3V1344H2243.4H710.2v1533.2v1533.2h1533.2h1533.2V2877.3z"/><path d="M5798.6,4997c-78.6-34.5-159.1-132.2-172.5-208.9c-5.7-34.5-7.6-916.1-5.7-1962.5c5.7-1885.9,5.7-1901.2,46-1953c21.1-28.8,63.2-70.9,92-92c51.7-40.2,63.2-40.2,2004.7-40.2c1941.5,0,1953,0,2004.7,40.2c28.8,21.1,70.9,63.2,92,92c40.2,51.7,40.2,63.3,40.2,2004.7s0,1953-40.2,2004.7c-21.1,28.7-63.3,70.9-92,92c-51.7,40.2-67.1,40.2-1981.7,44.1C6210.6,5021.9,5844.6,5018,5798.6,4997z M9296.3,2877.3V1344H7763H6229.8v1533.2v1533.2H7763h1533.2V2877.3z"/><path d="M279-522.7c-78.6-34.5-159.1-132.2-172.5-208.9c-5.7-34.5-7.7-916.1-5.7-1962.5c5.7-1885.9,5.7-1901.2,46-1952.9c21.1-28.8,63.2-70.9,92-92c51.7-40.2,63.3-40.2,2004.7-40.2s1953,0,2004.7,40.2c28.8,21.1,70.9,63.3,92,92c40.2,51.7,40.2,63.2,40.2,2004.7s0,1952.9-40.2,2004.7c-21.1,28.8-63.2,70.9-92,92c-51.7,40.3-67.1,40.3-1981.7,44.1C691-497.8,325-501.6,279-522.7z M3776.7-2642.4v-1533.2H2243.4H710.2v1533.2v1533.2h1533.2h1533.2V-2642.4z"/><path d="M5798.6-522.7c-78.6-34.5-159.1-132.2-172.5-208.9c-5.7-34.5-7.6-916.1-5.7-1962.5c5.7-1885.9,5.7-1901.2,46-1952.9c21.1-28.8,63.2-70.9,92-92c51.7-40.2,63.2-40.2,2004.7-40.2c1941.5,0,1953,0,2004.7,40.2c28.8,21.1,70.9,63.3,92,92c40.2,51.7,40.2,63.2,40.2,2004.7s0,1952.9-40.2,2004.7c-21.1,28.8-63.3,70.9-92,92c-51.7,40.3-67.1,40.3-1981.7,44.1C6210.6-497.8,5844.6-501.6,5798.6-522.7z M9296.3-2642.4v-1533.2H7763H6229.8v1533.2v1533.2H7763h1533.2V-2642.4z"/></g></g>
</svg>