<svg height="512pt" viewBox="0 -68 512 511" width="512pt" xmlns="http://www.w3.org/2000/svg"><path d="m448.085938.5h-384.171876c-22.128906 0-40.132812 18.003906-40.132812 40.132812v250.640626c0 8.464843 6.863281 15.328124 15.328125 15.328124h433.777344c8.46875 0 15.332031-6.863281 15.332031-15.328124v-250.640626c0-22.128906-18.003906-40.132812-40.132812-40.132812zm0 0" fill="#c8fdfa"/><path d="m385.066406 73.941406h-53.144531c-8.464844 0-15.328125 6.863282-15.328125 15.328125 0 8.46875 6.863281 15.332031 15.328125 15.332031h16.136719l-79.292969 79.289063-64.652344-64.65625c-5.984375-5.984375-15.691406-5.984375-21.679687 0l-66.339844 66.34375c-5.984375 5.984375-5.984375 15.691406 0 21.675781 5.988281 5.988282 15.695312 5.988282 21.679688 0l55.503906-55.5 64.652344 64.652344c2.875 2.875 6.773437 4.492188 10.835937 4.492188 4.066406 0 7.96875-1.617188 10.839844-4.492188l90.128906-90.128906v16.136718c0 8.464844 6.863281 15.328126 15.328125 15.328126 8.46875 0 15.332031-6.863282 15.332031-15.328126v-53.144531c0-8.464843-6.863281-15.328125-15.328125-15.328125zm0 0" fill="#fc5356"/><path d="m448.085938.5h-192.082032v306.101562h216.882813c8.46875 0 15.332031-6.863281 15.332031-15.328124v-250.640626c0-22.128906-18.003906-40.132812-40.132812-40.132812zm0 0" fill="#85eef2"/><path d="m385.066406 73.941406h-53.144531c-8.464844 0-15.328125 6.863282-15.328125 15.328125 0 8.46875 6.863281 15.332031 15.328125 15.332031h16.136719l-79.292969 79.289063-12.761719-12.765625v43.355469l1.921875 1.925781c2.875 2.875 6.773438 4.492188 10.839844 4.492188s7.964844-1.617188 10.839844-4.492188l90.128906-90.128906v16.132812c0 8.46875 6.863281 15.332032 15.328125 15.332032s15.328125-6.863282 15.328125-15.332032v-53.140625c.003906-8.464843-6.859375-15.328125-15.324219-15.328125zm0 0" fill="#f70b57"/><path d="m496.671875 275.945312h-481.34375c-8.464844 0-15.328125 6.863282-15.328125 15.328126v23.050781c0 33.203125 27.011719 60.210937 60.210938 60.210937h391.578124c33.199219 0 60.210938-27.007812 60.210938-60.210937v-23.050781c0-8.464844-6.863281-15.328126-15.328125-15.328126zm0 0" fill="#dce1eb"/><path d="m496.671875 275.945312h-240.667969v98.589844h195.785156c33.199219 0 60.210938-27.007812 60.210938-60.210937v-23.050781c0-8.464844-6.863281-15.328126-15.328125-15.328126zm0 0" fill="#bfbfde"/></svg>