<?xml version="1.0" encoding="iso-8859-1"?>
<!-- Generator: Adobe Illustrator 19.0.0, SVG Export Plug-In . SVG Version: 6.00 Build 0)  -->
<svg version="1.1" id="Capa_1" xmlns="http://www.w3.org/2000/svg" xmlns:xlink="http://www.w3.org/1999/xlink" x="0px" y="0px"
	 viewBox="0 0 512 512" style="enable-background:new 0 0 512 512;" xml:space="preserve">
<g>
	<g>
		<path d="M376,216c-5.52,0-10,4.48-10,10s4.48,10,10,10c5.52,0,10-4.48,10-10S381.52,216,376,216z"/>
	</g>
</g>
<g>
	<g>
		<path d="M296,176c-5.52,0-10,4.48-10,10s4.48,10,10,10c5.52,0,10-4.48,10-10S301.52,176,296,176z"/>
	</g>
</g>
<g>
	<g>
		<path d="M176,256c-5.52,0-10,4.48-10,10c0,5.52,4.48,10,10,10s10-4.48,10-10C186,260.48,181.52,256,176,256z"/>
	</g>
</g>
<g>
	<g>
		<path d="M156,196h-20c-5.522,0-10,4.477-10,10s4.478,10,10,10h20c5.522,0,10-4.477,10-10S161.522,196,156,196z"/>
	</g>
</g>
<g>
	<g>
		<path d="M236,256h-20c-5.522,0-10,4.477-10,10s4.478,10,10,10h20c5.522,0,10-4.477,10-10S241.522,256,236,256z"/>
	</g>
</g>
<g>
	<g>
		<path d="M196,336h-20c-5.522,0-10,4.477-10,10s4.478,10,10,10h20c5.522,0,10-4.477,10-10S201.522,336,196,336z"/>
	</g>
</g>
<g>
	<g>
		<path d="M296,296h-20c-5.522,0-10,4.477-10,10s4.478,10,10,10h20c5.522,0,10-4.477,10-10S301.522,296,296,296z"/>
	</g>
</g>
<g>
	<g>
		<path d="M256,176h-20c-5.522,0-10,4.477-10,10s4.478,10,10,10h20c5.522,0,10-4.477,10-10S261.522,176,256,176z"/>
	</g>
</g>
<g>
	<g>
		<path d="M216,116h-20c-5.522,0-10,4.477-10,10s4.478,10,10,10h20c5.522,0,10-4.477,10-10S221.522,116,216,116z"/>
	</g>
</g>
<g>
	<g>
		<path d="M296,116h-20c-5.522,0-10,4.477-10,10s4.478,10,10,10h20c5.522,0,10-4.477,10-10S301.522,116,296,116z"/>
	</g>
</g>
<g>
	<g>
		<path d="M376,176c-27.57,0-50,22.43-50,50s22.43,50,50,50s50-22.43,50-50S403.57,176,376,176z M376,256c-16.542,0-30-13.458-30-30
			s13.458-30,30-30s30,13.458,30,30S392.542,256,376,256z"/>
	</g>
</g>
<g>
	<g>
		<path d="M512,266c0-15.546-11.887-28.365-27.048-29.853c-2.745-26.338-11.003-52.021-24.201-75.263l19.439-11.223
			c4.783-2.761,6.422-8.877,3.66-13.66c-2.762-4.782-8.876-6.421-13.66-3.66l-20.207,11.666
			c-16.756-23.56-38.63-43.507-64.049-58.416l13.727-23.781c2.761-4.783,1.121-10.899-3.662-13.66
			c-4.783-2.764-10.899-1.122-13.66,3.662l-14.13,24.48C342.638,64.393,314.566,57.551,286,56.252V26c0-5.523-4.478-10-10-10
			c-5.522,0-10,4.477-10,10v30.239c-26.722,1.174-52.437,7.064-76.68,17.564C172.541,50.283,145.214,36,116,36
			c-5.522,0-10,4.477-10,10v92.573c-1.358,1.781-2.697,3.586-4.002,5.422L81.81,132.34c-4.784-2.761-10.899-1.123-13.66,3.66
			c-2.762,4.783-1.123,10.899,3.66,13.66l19.419,11.212c-9.108,15.997-15.808,32.954-20.015,50.643l-56.019-34.06
			C8.56,173.42,0,178.185,0,186v160c0,7.848,8.603,12.572,15.214,8.533l60.864-37.185c3.943,11.67,9.011,22.967,15.157,33.777
			L71.81,362.34c-4.783,2.761-6.422,8.877-3.66,13.66c2.775,4.806,8.9,6.409,13.66,3.66l20.188-11.656
			c1.305,1.836,2.644,3.64,4.002,5.422V466c0,5.523,4.478,10,10,10c29.21,0,56.534-14.28,73.314-37.795
			c24.27,10.494,50.014,16.386,76.686,17.562V486c0,5.523,4.478,10,10,10c5.522,0,10-4.477,10-10v-30.231
			c28.771-1.283,56.638-8.093,82.225-20.032l14.114,24.452c2.775,4.807,8.9,6.41,13.66,3.662c4.783-2.761,6.423-8.876,3.662-13.66
			l-13.716-23.763c3.111-1.825,6.182-3.726,9.206-5.713c21.778-14.314,40.308-32.169,54.879-52.695l20.161,11.64
			c4.775,2.756,10.895,1.13,13.66-3.66c2.762-4.783,1.123-10.899-3.66-13.66l-19.413-11.208c2.794-4.924,5.379-9.97,7.744-15.132
			H482c16.542,0,30-13.458,30-30c0-7.676-2.898-14.688-7.657-20C509.102,280.688,512,273.676,512,266z M20,328.172V203.783
			l47.428,28.836C66.483,240.336,66,248.172,66,256c0,13.935,1.525,27.797,4.507,41.314L20,328.172z M126,56.722
			c17.756,2.575,33.906,11.943,45.014,26.039c-16.467,9.081-31.655,20.345-45.014,33.313V56.722z M126,455.278v-59.353
			c13.361,12.97,28.549,24.234,45.014,33.313C159.906,443.335,143.756,452.703,126,455.278z M276,436
			c-22.956,0-45.211-3.785-66.357-11.272C269.392,368.17,349.666,335.9,432.2,335.9h14.074C414.386,397.056,349.16,436,276,436z
			 M456,296h26c5.514,0,10,4.486,10,10c0,5.514-4.486,10-10,10c-12.24,0-41.737,0-49.8,0c-46.595,0-91.946,9.271-134.797,27.553
			c-40.512,17.285-76.756,41.755-107.828,72.785C128.758,386.868,86,326.6,86,256c0-99.913,85.591-180,190-180
			c97.218,0,178.179,69.367,188.83,160H456c-5.522,0-10,4.477-10,10s4.478,9.9,10,9.9c23.767,0.006,18.104,0.006,26,0
			c5.514,0,10,4.586,10,10.1c0,5.514-4.486,10-10,10h-26c-5.522,0-10,4.477-10,10S450.478,296,456,296z"/>
	</g>
</g>
<g>
</g>
<g>
</g>
<g>
</g>
<g>
</g>
<g>
</g>
<g>
</g>
<g>
</g>
<g>
</g>
<g>
</g>
<g>
</g>
<g>
</g>
<g>
</g>
<g>
</g>
<g>
</g>
<g>
</g>
</svg>
